<svg xmlns="http://www.w3.org/2000/svg" xmlns:xlink="http://www.w3.org/1999/xlink" width="500" zoomAndPan="magnify" viewBox="0 0 375 374.999991" height="500" preserveAspectRatio="xMidYMid meet" version="1.0"><defs><clipPath id="d8100ac839"><path d="M 59.375 125.160156 L 321.578125 125.160156 L 321.578125 301.335938 L 59.375 301.335938 Z M 59.375 125.160156 " clip-rule="nonzero"/></clipPath></defs><g clip-path="url(#d8100ac839)"><path fill="#ffffff" d="M 294.222656 165.554688 L 248.207031 165.554688 L 263.976562 131.929688 L 309.984375 131.929688 Z M 205.273438 165.554688 L 159.257812 165.554688 L 175.03125 131.929688 L 221.035156 131.929688 Z M 116.308594 165.554688 L 70.304688 165.554688 L 86.074219 131.929688 L 132.082031 131.929688 Z M 59.796875 125.535156 L 59.796875 291.289062 C 59.796875 296.992188 64.421875 301.613281 70.125 301.613281 L 311.25 301.613281 C 316.957031 301.613281 321.578125 296.992188 321.578125 291.289062 L 321.578125 125.535156 L 59.796875 125.535156 " fill-opacity="1" fill-rule="nonzero"/></g><path fill="#ffffff" d="M 306.117188 81.253906 L 260.640625 88.234375 L 239.953125 57.390625 L 285.4375 50.410156 Z M 218.195312 94.75 L 172.722656 101.730469 L 152.03125 70.890625 L 197.515625 63.90625 Z M 130.273438 108.246094 L 84.796875 115.230469 L 64.113281 84.386719 L 109.582031 77.40625 Z M 318.546875 85.8125 L 313.023438 49.828125 C 312.160156 44.191406 306.882812 40.324219 301.246094 41.1875 L 62.914062 77.777344 C 57.273438 78.640625 53.40625 83.914062 54.273438 89.550781 L 59.796875 125.535156 L 318.546875 85.8125 " fill-opacity="1" fill-rule="nonzero"/></svg>