<svg xmlns="http://www.w3.org/2000/svg" xmlns:xlink="http://www.w3.org/1999/xlink" width="500" zoomAndPan="magnify" viewBox="0 0 375 374.999991" height="500" preserveAspectRatio="xMidYMid meet" version="1.0"><defs><clipPath id="0de19ff375"><path d="M 72 104 L 291 104 L 291 301.335938 L 72 301.335938 Z M 72 104 " clip-rule="nonzero"/></clipPath></defs><path fill="#ffffff" d="M 312.992188 132.117188 L 268.734375 99.558594 L 268.734375 60.722656 C 268.734375 54.636719 263.792969 49.710938 257.710938 49.710938 L 239.800781 49.710938 C 233.710938 49.710938 228.777344 54.644531 228.777344 60.722656 L 228.777344 70.160156 L 195.03125 45.339844 C 187.707031 39.941406 175.71875 39.941406 168.398438 45.339844 L 50.433594 132.117188 C 43.113281 137.507812 41.535156 147.914062 46.925781 155.246094 L 50.183594 159.671875 C 55.566406 167 65.976562 168.589844 73.289062 163.199219 L 168.398438 93.203125 C 175.71875 87.8125 187.707031 87.8125 195.03125 93.203125 L 290.128906 163.199219 C 297.453125 168.589844 307.851562 166.992188 313.234375 159.671875 L 316.503906 155.246094 C 321.886719 147.914062 320.308594 137.507812 312.992188 132.117188 Z M 312.992188 132.117188 " fill-opacity="1" fill-rule="nonzero"/><g clip-path="url(#0de19ff375)"><path fill="#ffffff" d="M 277.703125 169.285156 L 195.003906 108.167969 C 187.691406 102.757812 175.738281 102.757812 168.425781 108.167969 L 85.726562 169.285156 C 78.414062 174.695312 72.425781 182.601562 72.425781 186.890625 L 72.425781 275.503906 C 72.425781 289.890625 84.761719 301.558594 99.980469 301.558594 L 150.484375 301.558594 L 150.484375 223.171875 C 150.484375 217.117188 155.445312 212.167969 161.5 212.167969 L 201.914062 212.167969 C 207.964844 212.167969 212.925781 217.117188 212.925781 223.171875 L 212.925781 301.558594 L 263.4375 301.558594 C 278.652344 301.558594 290.976562 289.890625 290.976562 275.503906 L 290.976562 186.890625 C 290.984375 182.601562 285.015625 174.695312 277.703125 169.285156 Z M 277.703125 169.285156 " fill-opacity="1" fill-rule="nonzero"/></g></svg>