<svg xmlns="http://www.w3.org/2000/svg" xmlns:xlink="http://www.w3.org/1999/xlink" width="500" zoomAndPan="magnify" viewBox="0 0 375 374.999991" height="500" preserveAspectRatio="xMidYMid meet" version="1.0"><defs><clipPath id="92a687ca39"><path d="M 321.117188 191.453125 L 337.488281 191.453125 L 337.488281 287 L 321.117188 287 Z M 321.117188 191.453125 " clip-rule="nonzero"/></clipPath><clipPath id="fe116cf424"><path d="M 37.5 73.363281 L 314.972656 73.363281 L 314.972656 301.335938 L 37.5 301.335938 Z M 37.5 73.363281 " clip-rule="nonzero"/></clipPath></defs><g clip-path="url(#92a687ca39)"><path fill="#ffffff" d="M 321.257812 198.65625 L 321.257812 280.070312 L 337.488281 286.972656 L 337.488281 191.753906 L 321.257812 198.65625 " fill-opacity="1" fill-rule="nonzero"/></g><path fill="#ffffff" d="M 102.550781 107.554688 C 85.53125 107.554688 71.683594 121.402344 71.683594 138.421875 C 71.683594 155.445312 85.53125 169.292969 102.550781 169.292969 C 119.566406 169.292969 133.414062 155.445312 133.414062 138.421875 C 133.414062 121.402344 119.566406 107.554688 102.550781 107.554688 " fill-opacity="1" fill-rule="nonzero"/><g clip-path="url(#fe116cf424)"><path fill="#ffffff" d="M 232.660156 179.0625 C 210.25 179.0625 192.019531 160.832031 192.019531 138.421875 C 192.019531 116.015625 210.25 97.789062 232.660156 97.789062 C 255.054688 97.789062 273.277344 116.015625 273.277344 138.421875 C 273.277344 160.832031 255.054688 179.0625 232.660156 179.0625 Z M 225.910156 221.570312 L 113.074219 221.570312 L 113.074219 211.746094 L 225.910156 211.746094 Z M 210.03125 244.003906 L 128.964844 244.003906 L 128.964844 234.722656 L 210.03125 234.722656 Z M 61.917969 138.421875 C 61.917969 116.015625 80.144531 97.789062 102.550781 97.789062 C 124.953125 97.789062 143.179688 116.015625 143.179688 138.421875 C 143.179688 160.832031 124.953125 179.0625 102.550781 179.0625 C 80.144531 179.0625 61.917969 160.832031 61.917969 138.421875 Z M 264.261719 216.660156 L 264.261719 195.257812 C 284.199219 184.140625 297.699219 162.867188 297.699219 138.421875 C 297.699219 102.496094 268.574219 73.367188 232.660156 73.367188 C 196.722656 73.367188 167.597656 102.496094 167.597656 138.421875 C 167.597656 142.941406 168.0625 147.351562 168.9375 151.609375 L 166.253906 151.609375 C 167.132812 147.351562 167.597656 142.941406 167.597656 138.421875 C 167.597656 102.496094 138.480469 73.367188 102.546875 73.367188 C 66.617188 73.367188 37.5 102.496094 37.5 138.421875 C 37.5 165.738281 54.359375 189.089844 78.226562 198.730469 L 78.226562 229.601562 L 52.289062 229.601562 L 52.289062 259.085938 L 78.226562 259.085938 L 78.226562 289.90625 C 78.226562 296.375 83.457031 301.621094 89.929688 301.621094 L 252.539062 301.621094 C 259.003906 301.621094 264.261719 296.375 264.261719 289.90625 L 264.261719 262.066406 L 278.910156 262.066406 L 314.757812 277.308594 L 314.757812 201.417969 L 278.910156 216.660156 L 264.261719 216.660156 " fill-opacity="1" fill-rule="nonzero"/></g><path fill="#ffffff" d="M 232.660156 107.554688 C 215.636719 107.554688 201.785156 121.402344 201.785156 138.421875 C 201.785156 155.445312 215.636719 169.292969 232.660156 169.292969 C 249.671875 169.292969 263.507812 155.445312 263.507812 138.421875 C 263.507812 121.402344 249.671875 107.554688 232.660156 107.554688 " fill-opacity="1" fill-rule="nonzero"/></svg>